# xmcd
#
# Track frame offsets:
#	150
#	17287
#	38037
#	55012
#
# Disc length: 971 seconds
#
# Revision: 2
# Processed by: cddbd v1.5.2PL0 Copyright (c) Steve Scherf et al.
# Submitted via: EasyCDDAExtractor 12.0.7.1
#
DISCID=2003c904
DTITLE=陳曉東 - 在乎你感受
DYEAR=1997
DGENRE=Pop
TTITLE0=在乎你感受
TTITLE1=猜猜猜
TTITLE2=特權分子
TTITLE3=白日夢
EXTD=
EXTT0=
EXTT1=
EXTT2=
EXTT3=
PLAYORDER=
